<svg width="12" height="12" viewBox="0 0 12 12" fill="none" xmlns="http://www.w3.org/2000/svg">
    <path fillRule="evenodd" clipRule="evenodd" d="M4.53756 0.750021C3.81839 0.747574 3.11431 0.95619 2.51256 1.35002L4.91256 3.75002C5.07403 3.88779 5.17305 4.08492 5.18717 4.29671C5.20129 4.50851 5.12932 4.71703 4.98756 4.87502C4.82957 5.01678 4.62104 5.08876 4.40925 5.07464C4.19746 5.06052 4.00033 4.9615 3.86256 4.80002L1.38756 2.40002C0.959642 3.0297 0.736966 3.77632 0.750058 4.53752C0.75828 6.62588 2.44919 8.3168 4.53756 8.32502C4.8659 8.32682 5.19326 8.28904 5.51256 8.21252L8.02506 10.725C8.76029 11.4602 9.95233 11.4602 10.6876 10.725C11.4228 9.98979 11.4228 8.79775 10.6876 8.06252L8.17506 5.55002C8.25158 5.23072 8.28935 4.90336 8.28756 4.57502C8.30771 3.56753 7.92154 2.59432 7.21608 1.87475C6.51062 1.15519 5.54525 0.74982 4.53756 0.750021ZM7.53756 4.53751C7.53701 4.80398 7.49914 5.06905 7.42506 5.32501L7.31256 5.73751L7.61256 6.03751L10.1251 8.55001C10.3413 8.75476 10.4634 9.03971 10.4626 9.33751C10.4711 9.63683 10.3477 9.92478 10.1251 10.125C9.9198 10.3405 9.63518 10.4625 9.33756 10.4625C9.03993 10.4625 8.75531 10.3405 8.55006 10.125L6.03756 7.61251L5.73756 7.31251L5.32506 7.42501C5.0691 7.4991 4.80402 7.53696 4.53756 7.53751C3.74071 7.5353 2.97529 7.22645 2.40006 6.67501C1.8118 6.12149 1.4849 5.34511 1.50006 4.53751C1.50057 4.25873 1.53841 3.98126 1.61256 3.71251L3.26256 5.36251C3.54419 5.66899 3.9371 5.84954 4.35309 5.86364C4.76908 5.87774 5.17331 5.72422 5.47506 5.43751C5.76176 5.13577 5.91529 4.73154 5.90119 4.31555C5.88708 3.89956 5.70653 3.50665 5.40006 3.22501L3.75006 1.57501C3.99259 1.49831 4.2457 1.46034 4.50006 1.46251C5.29691 1.46473 6.06233 1.77358 6.63756 2.32501C7.21332 2.91777 7.53606 3.71116 7.53756 4.53751Z" fill="white"/>
</svg>
