<svg width="22" height="22" viewBox="0 0 22 22" fill="none" xmlns="http://www.w3.org/2000/svg">
<path d="M11 0C17.0751 0 22 4.92487 22 11C22 17.0751 17.0751 22 11 22C4.92487 22 0 17.0751 0 11C0 4.92487 4.92487 0 11 0ZM15.7486 7.48886C15.4981 7.23828 15.1021 7.22157 14.8322 7.43875L14.7764 7.48886L9.2125 13.0527L7.22364 11.0639C6.95515 10.7954 6.51985 10.7954 6.25136 11.0639C6.00078 11.3145 5.98407 11.7104 6.20125 11.9803L6.25136 12.0361L8.72636 14.5111C8.97695 14.7617 9.37285 14.7784 9.64281 14.5613L9.69864 14.5111L15.7486 8.46114C16.0171 8.19265 16.0171 7.75735 15.7486 7.48886Z" fill="#00abbe"/>
</svg>
