<svg width="28" height="28" viewBox="0 0 28 28" fill="none" xmlns="http://www.w3.org/2000/svg">
<path d="M5.66738 5H7.32641C8.20497 5 8.92552 5.66795 8.98921 6.51427L8.99379 6.63633V21.3633C8.99379 22.2255 8.31317 22.9327 7.45079 22.9952L7.32641 22.9997H5.66738C4.78882 22.9997 4.06827 22.3317 4.00458 21.4854L4 21.3633V6.63633C4 5.77413 4.68062 5.067 5.543 5.00449L5.66738 5ZM11.499 5H13.1622C14.0408 5 14.7613 5.66795 14.825 6.51427L14.8296 6.63633V21.3633C14.8296 22.2255 14.149 22.9327 13.2866 22.9952L13.1622 22.9997H11.499C10.6197 22.9997 9.89984 22.3317 9.83622 21.4854L9.83165 21.3633V6.63633C9.83165 5.77413 10.5115 5.067 11.3745 5.00449L11.499 5ZM19.1153 6.65793C19.8183 6.65793 20.4623 7.09785 20.6934 7.77033L20.7318 7.89909L23.9498 20.5668C24.1631 21.4032 23.6775 22.2508 22.8556 22.5168L22.736 22.5508L21.0994 22.9509C20.9644 22.9836 20.8285 23 20.6951 23C19.9913 23 19.348 22.5594 19.117 21.8875L19.0786 21.7588L15.8597 9.09116C15.6472 8.25317 16.1328 7.40624 16.9547 7.14098L17.0744 7.10711L18.7109 6.70702C18.846 6.6743 18.9819 6.65793 19.1153 6.65793ZM7.32641 6.22725H5.66738C5.46359 6.22725 5.29273 6.3727 5.25728 6.56305L5.25053 6.63633V21.3633C5.25053 21.5633 5.39874 21.731 5.5927 21.7658L5.66738 21.7724H7.32641C7.53095 21.7724 7.70122 21.627 7.73654 21.4366L7.74326 21.3633V6.63633C7.74326 6.43634 7.59571 6.26866 7.40131 6.23387L7.32641 6.22725ZM13.1622 6.22725H11.499C11.2945 6.22725 11.1242 6.3727 11.0889 6.56305L11.0822 6.63633V21.3633C11.0822 21.5633 11.2297 21.731 11.4241 21.7658L11.499 21.7724H13.1622C13.3668 21.7724 13.537 21.627 13.5724 21.4366L13.5791 21.3633V6.63633C13.5791 6.43634 13.4315 6.26866 13.2371 6.23387L13.1622 6.22725ZM19.1153 7.88518L19.064 7.88825L19.0127 7.89746L17.377 8.29754C17.1784 8.34627 17.049 8.52752 17.0619 8.72062L17.0736 8.79335L20.2916 21.4618C20.3458 21.6746 20.5392 21.7727 20.6951 21.7727L20.7463 21.7696L20.7968 21.7597L22.4333 21.3596C22.6319 21.3108 22.7614 21.1302 22.7485 20.9367L22.7368 20.8638L19.5179 8.19527C19.4637 7.98173 19.2712 7.88518 19.1153 7.88518Z" fill="black"/>
</svg>
