<svg width="28" height="28" viewBox="0 0 28 28" fill="none" xmlns="http://www.w3.org/2000/svg">
<path d="M11.286 6C12.3204 6 13.2947 6.42918 14.0002 7.16399C14.7053 6.42918 15.6796 6 16.714 6H20.0752C20.448 6 20.7502 6.30856 20.7502 6.68919L20.75 7.38205L22.325 7.38258C22.6667 7.38258 22.9491 7.64186 22.9938 7.97825L23 8.07177V22.3108C23 22.6597 22.7461 22.9481 22.4166 22.9937L22.325 23H5.675C5.33327 23 5.05086 22.7407 5.00616 22.4043L5 22.3108V8.07177C5 7.72286 5.25394 7.43451 5.58341 7.38887L5.675 7.38258L7.2491 7.38205L7.24978 6.68919C7.24978 6.34028 7.50372 6.05193 7.83318 6.00629L7.92478 6H11.286ZM7.2491 8.76043H6.35V21.6216L13.0489 21.6215C12.602 21.0893 11.9606 20.7567 11.2662 20.7087L11.0915 20.7027H7.92478C7.58305 20.7027 7.30064 20.4434 7.25594 20.107L7.24978 20.0135L7.2491 8.76043ZM20.7502 20.0135C20.7502 20.3941 20.448 20.7027 20.0752 20.7027H16.9085C16.1477 20.7027 15.4353 21.045 14.9511 21.6215L21.65 21.6216V8.76043H20.75L20.7502 20.0135ZM19.4011 7.37746L16.714 7.37838L16.5391 7.38474C15.7858 7.43964 15.0987 7.8468 14.6752 8.49211V20.0383L14.6962 20.0228C15.3389 19.5742 16.106 19.3243 16.9085 19.3243L19.4011 19.3234L19.4009 8.11168L19.3988 8.07177L19.4009 8.03081L19.4011 7.37746ZM11.286 7.37838L8.5991 7.37746L8.60118 8.07177L8.5991 8.09789V19.3234L11.0915 19.3243C11.8137 19.3243 12.5073 19.5267 13.1073 19.8943L13.3241 20.0374V8.49119C12.9339 7.89637 12.3183 7.50368 11.6335 7.40361L11.4609 7.38474L11.286 7.37838Z" fill="#00ABBE"/>
</svg>
