<svg width="24" height="24" viewBox="0 0 24 24" fill="none" xmlns="http://www.w3.org/2000/svg">
<g clip-path="url(#clip0)">
<mask id="path-1-inside-1" fill="white">
<path fill-rule="evenodd" clip-rule="evenodd" d="M36.0831 0H5.00402C3.20933 0 2.32294 2.18093 3.60879 3.43294L24.083 23.3684V119C24.083 124.523 28.5601 129 34.083 129H503.083C508.606 129 513.083 124.523 513.083 119V11C513.083 5.47715 508.606 1 503.083 1H37.8155C37.4697 0.402199 36.8233 0 36.0831 0Z"/>
</mask>
<path fill-rule="evenodd" clip-rule="evenodd" d="M36.0831 0H5.00402C3.20933 0 2.32294 2.18093 3.60879 3.43294L24.083 23.3684V119C24.083 124.523 28.5601 129 34.083 129H503.083C508.606 129 513.083 124.523 513.083 119V11C513.083 5.47715 508.606 1 503.083 1H37.8155C37.4697 0.402199 36.8233 0 36.0831 0Z" fill="#FCFBFB"/>
<path d="M3.60879 3.43294L4.3064 2.71647L4.3064 2.71647L3.60879 3.43294ZM24.083 23.3684H25.083V22.9463L24.7806 22.6519L24.083 23.3684ZM37.8155 1L36.9499 1.50073L37.2387 2H37.8155V1ZM5.00402 1H36.0831V-1H5.00402V1ZM4.3064 2.71647C3.66348 2.09047 4.10667 1 5.00402 1V-1C2.31198 -1 0.982396 2.2714 2.91117 4.14941L4.3064 2.71647ZM24.7806 22.6519L4.3064 2.71647L2.91117 4.14941L23.3854 24.0848L24.7806 22.6519ZM25.083 119V23.3684H23.083V119H25.083ZM34.083 128C29.1124 128 25.083 123.971 25.083 119H23.083C23.083 125.075 28.0079 130 34.083 130V128ZM503.083 128H34.083V130H503.083V128ZM512.083 119C512.083 123.971 508.054 128 503.083 128V130C509.158 130 514.083 125.075 514.083 119H512.083ZM512.083 11V119H514.083V11H512.083ZM503.083 2C508.054 2 512.083 6.02944 512.083 11H514.083C514.083 4.92487 509.158 0 503.083 0V2ZM37.8155 2H503.083V0H37.8155V2ZM36.0831 1C36.4519 1 36.7755 1.19922 36.9499 1.50073L38.6811 0.499273C38.1639 -0.394818 37.1947 -1 36.0831 -1V1Z" fill="#C7C7CA" mask="url(#path-1-inside-1)"/>
</g>
<defs>
<clipPath id="clip0">
<rect width="24" height="24" fill="white"/>
</clipPath>
</defs>
</svg>
