<svg width="24" height="24" viewBox="0 0 24 24" fill="none" xmlns="http://www.w3.org/2000/svg">
<g clip-path="url(#clip0)">
<path fill-rule="evenodd" clip-rule="evenodd" d="M24.0829 1H5.00402C3.20933 1 2.32294 3.18093 3.60879 4.43294L24.0829 24.3683V119C24.0829 124.523 28.5601 129 34.0829 129H503.083C508.606 129 513.083 124.523 513.083 119V11C513.083 5.47715 508.606 1 503.083 1H36.0831H24.0829Z" fill="#FCFBFB"/>
<path d="M3.60879 4.43294L3.95759 4.07471L3.95759 4.07471L3.60879 4.43294ZM24.0829 24.3683H24.5829V24.1573L24.4318 24.0101L24.0829 24.3683ZM5.00402 1.5H24.0829V0.5H5.00402V1.5ZM3.95759 4.07471C2.99321 3.1357 3.658 1.5 5.00402 1.5V0.5C2.76065 0.5 1.65267 3.22617 3.25998 4.79118L3.95759 4.07471ZM24.4318 24.0101L3.95759 4.07471L3.25998 4.79118L23.7341 24.7265L24.4318 24.0101ZM24.5829 119V24.3683H23.5829V119H24.5829ZM34.0829 128.5C28.8362 128.5 24.5829 124.247 24.5829 119H23.5829C23.5829 124.799 28.2839 129.5 34.0829 129.5V128.5ZM503.083 128.5H34.0829V129.5H503.083V128.5ZM512.583 119C512.583 124.247 508.33 128.5 503.083 128.5V129.5C508.882 129.5 513.583 124.799 513.583 119H512.583ZM512.583 11V119H513.583V11H512.583ZM503.083 1.5C508.33 1.5 512.583 5.75329 512.583 11H513.583C513.583 5.20101 508.882 0.5 503.083 0.5V1.5ZM36.0831 1.5H503.083V0.5H36.0831V1.5ZM24.0829 1.5H36.0831V0.5H24.0829V1.5Z" fill="#C7C7CA"/>
</g>
<defs>
<clipPath id="clip0">
<rect width="24" height="24" fill="white"/>
</clipPath>
</defs>
</svg>
