<svg width="22" height="22" viewBox="0 0 22 22" fill="none" xmlns="http://www.w3.org/2000/svg">
<path d="M11 0C17.0751 0 22 4.92487 22 11C22 17.0751 17.0751 22 11 22C4.92487 22 0 17.0751 0 11C0 4.92487 4.92487 0 11 0ZM11 1.375C5.68426 1.375 1.375 5.68426 1.375 11C1.375 16.3157 5.68426 20.625 11 20.625C16.3157 20.625 20.625 16.3157 20.625 11C20.625 5.68426 16.3157 1.375 11 1.375ZM15.7486 7.48886C16.0171 7.75735 16.0171 8.19265 15.7486 8.46114L9.69864 14.5111C9.43015 14.7796 8.99485 14.7796 8.72636 14.5111L6.25136 12.0361C5.98288 11.7677 5.98288 11.3323 6.25136 11.0639C6.51985 10.7954 6.95515 10.7954 7.22364 11.0639L9.2125 13.0527L14.7764 7.48886C15.0448 7.22038 15.4802 7.22038 15.7486 7.48886Z" fill="#C7C7CA"/>
</svg>
