<!--<svg xmlns="http://www.w3.org/2000/svg" viewBox="0 0 841.9 595.3">-->
<!--    <g fill="#61DAFB">-->
<!--        <path d="M666.3 296.5c0-32.5-40.7-63.3-103.1-82.4 14.4-63.6 8-114.2-20.2-130.4-6.5-3.8-14.1-5.6-22.4-5.6v22.3c4.6 0 8.3.9 11.4 2.6 13.6 7.8 19.5 37.5 14.9 75.7-1.1 9.4-2.9 19.3-5.1 29.4-19.6-4.8-41-8.5-63.5-10.9-13.5-18.5-27.5-35.3-41.6-50 32.6-30.3 63.2-46.9 84-46.9V78c-27.5 0-63.5 19.6-99.9 53.6-36.4-33.8-72.4-53.2-99.9-53.2v22.3c20.7 0 51.4 16.5 84 46.6-14 14.7-28 31.4-41.3 49.9-22.6 2.4-44 6.1-63.6 11-2.3-10-4-19.7-5.2-29-4.7-38.2 1.1-67.9 14.6-75.8 3-1.8 6.9-2.6 11.5-2.6V78.5c-8.4 0-16 1.8-22.6 5.6-28.1 16.2-34.4 66.7-19.9 130.1-62.2 19.2-102.7 49.9-102.7 82.3 0 32.5 40.7 63.3 103.1 82.4-14.4 63.6-8 114.2 20.2 130.4 6.5 3.8 14.1 5.6 22.5 5.6 27.5 0 63.5-19.6 99.9-53.6 36.4 33.8 72.4 53.2 99.9 53.2 8.4 0 16-1.8 22.6-5.6 28.1-16.2 34.4-66.7 19.9-130.1 62-19.1 102.5-49.9 102.5-82.3zm-130.2-66.7c-3.7 12.9-8.3 26.2-13.5 39.5-4.1-8-8.4-16-13.1-24-4.6-8-9.5-15.8-14.4-23.4 14.2 2.1 27.9 4.7 41 7.9zm-45.8 106.5c-7.8 13.5-15.8 26.3-24.1 38.2-14.9 1.3-30 2-45.2 2-15.1 0-30.2-.7-45-1.9-8.3-11.9-16.4-24.6-24.2-38-7.6-13.1-14.5-26.4-20.8-39.8 6.2-13.4 13.2-26.8 20.7-39.9 7.8-13.5 15.8-26.3 24.1-38.2 14.9-1.3 30-2 45.2-2 15.1 0 30.2.7 45 1.9 8.3 11.9 16.4 24.6 24.2 38 7.6 13.1 14.5 26.4 20.8 39.8-6.3 13.4-13.2 26.8-20.7 39.9zm32.3-13c5.4 13.4 10 26.8 13.8 39.8-13.1 3.2-26.9 5.9-41.2 8 4.9-7.7 9.8-15.6 14.4-23.7 4.6-8 8.9-16.1 13-24.1zM421.2 430c-9.3-9.6-18.6-20.3-27.8-32 9 .4 18.2.7 27.5.7 9.4 0 18.7-.2 27.8-.7-9 11.7-18.3 22.4-27.5 32zm-74.4-58.9c-14.2-2.1-27.9-4.7-41-7.9 3.7-12.9 8.3-26.2 13.5-39.5 4.1 8 8.4 16 13.1 24 4.7 8 9.5 15.8 14.4 23.4zM420.7 163c9.3 9.6 18.6 20.3 27.8 32-9-.4-18.2-.7-27.5-.7-9.4 0-18.7.2-27.8.7 9-11.7 18.3-22.4 27.5-32zm-74 58.9c-4.9 7.7-9.8 15.6-14.4 23.7-4.6 8-8.9 16-13 24-5.4-13.4-10-26.8-13.8-39.8 13.1-3.1 26.9-5.8 41.2-7.9zm-90.5 125.2c-35.4-15.1-58.3-34.9-58.3-50.6 0-15.7 22.9-35.6 58.3-50.6 8.6-3.7 18-7 27.7-10.1 5.7 19.6 13.2 40 22.5 60.9-9.2 20.8-16.6 41.1-22.2 60.6-9.9-3.1-19.3-6.5-28-10.2zM310 490c-13.6-7.8-19.5-37.5-14.9-75.7 1.1-9.4 2.9-19.3 5.1-29.4 19.6 4.8 41 8.5 63.5 10.9 13.5 18.5 27.5 35.3 41.6 50-32.6 30.3-63.2 46.9-84 46.9-4.5-.1-8.3-1-11.3-2.7zm237.2-76.2c4.7 38.2-1.1 67.9-14.6 75.8-3 1.8-6.9 2.6-11.5 2.6-20.7 0-51.4-16.5-84-46.6 14-14.7 28-31.4 41.3-49.9 22.6-2.4 44-6.1 63.6-11 2.3 10.1 4.1 19.8 5.2 29.1zm38.5-66.7c-8.6 3.7-18 7-27.7 10.1-5.7-19.6-13.2-40-22.5-60.9 9.2-20.8 16.6-41.1 22.2-60.6 9.9 3.1 19.3 6.5 28.1 10.2 35.4 15.1 58.3 34.9 58.3 50.6-.1 15.7-23 35.6-58.4 50.6zM320.8 78.4z"/>-->
<!--        <circle cx="420.9" cy="296.5" r="45.7"/>-->
<!--        <path d="M520.5 78.1z"/>-->
<!--    </g>-->
<!--</svg>-->

<svg width="117" height="148" viewBox="0 0 117 148" fill="none" xmlns="http://www.w3.org/2000/svg">
<path fill-rule="evenodd" clip-rule="evenodd" d="M101.326 31.4315H98.719L89.1004 5.84146C87.8746 2.56633 84.1727 0 80.6668 0H36.3332C32.8355 0 29.1172 2.56633 27.8914 5.84146L18.281 31.4315H15.6741C7.02801 31.4315 0 38.438 0 47.0576V47.4812C0 56.0927 7.02801 63.1073 15.6741 63.1073H19.2616C19.1227 62.3578 19.0492 61.5838 19.0492 60.7936C19.0492 60.0115 19.1227 59.2293 19.2616 58.4798H15.6741C9.58588 58.4798 4.64175 53.5427 4.64175 47.4812V47.0576C4.64175 40.988 9.58588 36.059 15.6741 36.059H21.5008L32.2389 7.46273C32.386 7.06352 32.6476 6.67246 32.9744 6.31399L55.0064 25.0849L47.1285 31.7899C45.4369 33.232 44.2029 35.8961 44.2029 38.1284V63.1073H72.5438C72.4048 62.3578 72.3313 61.5838 72.3313 60.7936C72.3313 60.0115 72.4048 59.2293 72.5438 58.4798H48.8447V38.1284C48.8447 37.2566 49.4821 35.8716 50.144 35.3095L84.0991 6.38732C84.3933 6.72135 84.6221 7.08797 84.7611 7.46273L95.4992 36.059H101.326C107.414 36.059 112.358 40.988 112.358 47.0576V47.4812C112.358 53.5427 107.414 58.4798 101.326 58.4798H97.7383C97.8773 59.2293 97.9508 60.0033 97.9508 60.7936C97.9508 61.5838 97.8773 62.3578 97.7383 63.1073H101.326C109.972 63.1073 117 56.0927 117 47.4812V47.0576C117 38.438 109.972 31.4315 101.326 31.4315ZM58.5858 22.0297L38.1474 4.62755H79.0242L58.5858 22.0297Z" fill="#00ACA0"/>
<path fill-rule="evenodd" clip-rule="evenodd" d="M85.1452 50.6179C79.5064 50.6179 74.9382 55.1721 74.9382 60.7936C74.9382 66.407 79.5064 70.9612 85.1452 70.9612C90.7758 70.9612 95.344 66.407 95.344 60.7936C95.3522 55.1721 90.784 50.6179 85.1452 50.6179ZM85.137 64.028C83.3473 64.028 81.9009 62.586 81.9009 60.8018C81.9009 59.0176 83.3473 57.5674 85.137 57.5674C86.9349 57.5674 88.3814 59.0176 88.3814 60.8018C88.3895 62.586 86.9431 64.028 85.137 64.028Z" fill="#00ACA0"/>
<path fill-rule="evenodd" clip-rule="evenodd" d="M31.8631 50.6179C26.2243 50.6179 21.6561 55.1721 21.6561 60.7936C21.6561 66.407 26.2243 70.9612 31.8631 70.9612C37.4937 70.9612 42.0619 66.407 42.0619 60.7936C42.0619 55.1721 37.4937 50.6179 31.8631 50.6179ZM31.8631 64.028C30.0734 64.028 28.6106 62.586 28.6106 60.8018C28.6106 59.0176 30.0652 57.5674 31.8631 57.5674C33.6528 57.5674 35.0992 59.0176 35.0992 60.8018C35.0992 62.586 33.6528 64.028 31.8631 64.028Z" fill="#00ACA0"/>
<path fill-rule="evenodd" clip-rule="evenodd" d="M58.504 35.8146C56.5836 35.8146 55.0227 37.3707 55.0227 39.2852C55.0227 41.1998 56.5836 42.7559 58.504 42.7559C60.4245 42.7559 61.9853 41.1998 61.9853 39.2852C61.9772 37.3625 60.4245 35.8146 58.504 35.8146Z" fill="#00ACA0"/>
<path fill-rule="evenodd" clip-rule="evenodd" d="M58.504 47.1472C56.5836 47.1472 55.0227 48.7033 55.0227 50.6179C55.0227 52.5324 56.5836 54.0885 58.504 54.0885C60.4245 54.0885 61.9853 52.5324 61.9853 50.6179C61.9772 48.7033 60.4245 47.1472 58.504 47.1472Z" fill="#00ACA0"/>
<path fill-rule="evenodd" clip-rule="evenodd" d="M32.3779 123.819L23.5683 113.285L14.3257 124.349L6.46411 117.994L18.0358 103.069V100.209H8.58886V90.946H39.1689V100.209H29.2479V103.118L40.5009 116.984L32.3779 123.819ZM14.4319 89.4714V80.0452H33.5955V89.4632H14.4319V89.4714ZM41.6695 126.101V79.8334H52.6038V95.6632L58.2344 95.0277V105.823L52.6038 106.458V123.982L41.6695 126.101Z" fill="#3E3A39"/>
<path fill-rule="evenodd" clip-rule="evenodd" d="M84.4669 121.017L64.4452 126.467L59.6646 118.524L78.8853 113.391V111.379L90.0321 110.637V112.862L109.31 117.994L104.48 126.459L84.4669 121.017ZM59.8852 111.273L109.155 108.202V99.9404L90.1465 101.154V99.6226H92.5328C94.6575 99.6226 96.5779 99.3864 98.2941 98.9057C100.01 98.425 101.473 97.7407 102.674 96.8445C103.876 95.9483 104.807 94.8647 105.461 93.6182C106.115 92.3636 106.442 90.9623 106.442 89.4062C106.442 87.8908 106.115 86.4977 105.461 85.2267C104.807 83.9558 103.876 82.8804 102.674 82.0005C101.473 81.1206 100.01 80.4281 98.2941 79.9393C96.5779 79.4423 94.6575 79.1979 92.5328 79.1979H76.4501C74.3253 79.1979 72.4049 79.4341 70.6887 79.9148C68.9726 80.3873 67.5098 81.0799 66.3085 81.976C65.1072 82.8722 64.1756 83.9558 63.5218 85.2023C62.868 86.4569 62.5411 87.8419 62.5411 89.3573C62.5411 90.9134 62.868 92.3147 63.5218 93.5693C64.1756 94.824 65.1072 95.8994 66.3085 96.7956C67.5098 97.6918 68.9726 98.3924 70.6887 98.8894C72.4049 99.3864 74.3253 99.6308 76.4501 99.6308H78.8935V101.855L59.8852 103.02V111.273ZM76.924 87.3531H92.0588C92.9822 87.3531 93.7831 87.5242 94.4777 87.8582C95.1642 88.1923 95.5156 88.7137 95.5156 89.4225C95.5156 90.1639 95.1723 90.6934 94.4777 91.0112C93.7913 91.3289 92.9822 91.4837 92.0588 91.4837H76.924C76.0006 91.4837 75.1997 91.3207 74.5051 90.9786C73.8186 90.6445 73.4672 90.1068 73.4672 89.3654C73.4672 88.6566 73.8105 88.1515 74.5051 87.8338C75.1997 87.5079 76.0006 87.3531 76.924 87.3531Z" fill="#3E3A39"/>
<path fill-rule="evenodd" clip-rule="evenodd" d="M11.9149 141.254C11.8414 141.425 11.7433 141.596 11.6044 141.776C11.4655 141.955 11.2775 142.175 11.0405 142.427C10.73 142.761 10.3868 143.12 10.0108 143.503C9.63492 143.886 9.19363 144.309 8.68696 144.774L7.71448 143.78C8.16394 143.372 8.57255 142.99 8.94029 142.623C9.31621 142.256 9.66761 141.882 10.0027 141.507C10.2478 141.238 10.4521 140.994 10.5992 140.782C10.7463 140.562 10.8607 140.35 10.9425 140.146C11.0242 139.934 11.0732 139.723 11.1059 139.511C11.1386 139.291 11.1468 139.046 11.1468 138.769V137.384H8.08222V136.105H11.1549V134.174H12.6423V136.105H15.5924V137.384H12.6423V138.769C12.6423 139.063 12.6586 139.323 12.6831 139.543C12.7158 139.763 12.773 139.967 12.8547 140.171C12.9365 140.366 13.059 140.578 13.2225 140.79C13.3777 141.002 13.5984 141.254 13.8599 141.539C14.1786 141.89 14.5055 142.216 14.8324 142.533C15.1674 142.851 15.5515 143.201 16.001 143.584L15.0285 144.578C14.5218 144.114 14.0969 143.715 13.7618 143.381C13.4268 143.047 13.1081 142.729 12.822 142.419C12.6096 142.191 12.4216 141.979 12.2582 141.784C12.0866 141.588 11.9721 141.409 11.9149 141.262V141.254ZM20.6427 140.48H18.5262V147.805H17.047V134.109H18.5262V139.209H20.6427V140.48Z" fill="#3E3A39"/>
<path fill-rule="evenodd" clip-rule="evenodd" d="M24.6962 135.128C25.6932 135.128 26.445 135.454 26.9517 136.105C27.4665 136.757 27.7198 137.743 27.7198 139.063V139.103H29.1336V134.378H30.5801V147.128H29.1336V140.383H27.7198V140.513C27.7198 141.833 27.4665 142.818 26.9517 143.47C26.4368 144.122 25.685 144.448 24.6962 144.448C23.6992 144.448 22.9473 144.122 22.4407 143.47C21.9258 142.818 21.6725 141.833 21.6725 140.513V139.055C21.6725 137.735 21.9258 136.749 22.4407 136.097C22.9555 135.462 23.7073 135.128 24.6962 135.128ZM24.6962 143.169C25.2519 143.169 25.6605 142.957 25.922 142.525C26.1835 142.093 26.3142 141.376 26.3142 140.366V139.234C26.3142 138.232 26.1835 137.515 25.9138 137.083C25.6441 136.651 25.2355 136.439 24.6962 136.439C24.1405 136.439 23.7319 136.651 23.4703 137.083C23.2088 137.515 23.0781 138.232 23.0781 139.234V140.366C23.0781 141.376 23.2088 142.093 23.4703 142.525C23.7319 142.957 24.1405 143.169 24.6962 143.169ZM33.3096 147.805H31.8713V134.109H33.3177V147.805H33.3096Z" fill="#3E3A39"/>
<path fill-rule="evenodd" clip-rule="evenodd" d="M44.9384 134.297C45.5922 134.297 46.1887 134.354 46.7362 134.468C47.2756 134.582 47.7414 134.745 48.1255 134.957C48.5096 135.168 48.812 135.429 49.0244 135.739C49.2369 136.048 49.3432 136.39 49.3432 136.781V137.197C49.3432 137.547 49.2533 137.857 49.0735 138.15C48.8937 138.435 48.6485 138.688 48.3298 138.892C48.0111 139.103 47.627 139.266 47.1775 139.397C46.7281 139.527 46.2296 139.609 45.682 139.649V140.839H51.2391V142.085H38.6377V140.839H44.1947V139.649C43.639 139.609 43.1405 139.527 42.6911 139.397C42.2416 139.266 41.8575 139.103 41.5388 138.892C41.2119 138.688 40.9667 138.435 40.7951 138.15C40.6235 137.865 40.5336 137.547 40.5336 137.197V136.781C40.5336 136.399 40.6399 136.048 40.8523 135.739C41.0648 135.429 41.3672 135.168 41.7513 134.957C42.1354 134.745 42.6012 134.582 43.1487 134.468C43.6799 134.354 44.2846 134.297 44.9384 134.297ZM45.6657 142.81V143.747C45.6657 143.902 45.6739 144.049 45.7066 144.179C45.7311 144.309 45.7965 144.44 45.8945 144.562C45.9926 144.692 46.1397 144.823 46.3276 144.953C46.5156 145.083 46.7689 145.238 47.0876 145.409C47.4472 145.597 47.8803 145.8 48.3952 146.028C48.91 146.248 49.5229 146.509 50.2339 146.794L49.621 147.967C48.9918 147.707 48.436 147.47 47.9375 147.25C47.439 147.031 47.0059 146.827 46.63 146.648C46.058 146.379 45.6494 146.159 45.4124 145.988C45.1754 145.817 45.0201 145.67 44.9466 145.564C44.8648 145.686 44.7096 145.825 44.4726 145.996C44.2356 146.167 43.8352 146.387 43.2631 146.664C42.8954 146.843 42.4622 147.039 41.9719 147.259C41.4816 147.479 40.9095 147.723 40.2476 148L39.6347 146.811C40.362 146.517 40.9749 146.257 41.4734 146.037C41.9719 145.817 42.4132 145.613 42.781 145.409C43.0997 145.238 43.353 145.083 43.541 144.945C43.7289 144.806 43.8678 144.676 43.9659 144.554C44.064 144.432 44.1212 144.301 44.1539 144.179C44.1866 144.049 44.1947 143.91 44.1947 143.747V142.81H45.6657ZM44.9384 138.46C45.3633 138.46 45.7638 138.427 46.1315 138.362C46.4993 138.297 46.8098 138.207 47.0713 138.093C47.3328 137.979 47.5371 137.841 47.6842 137.678C47.8313 137.515 47.9049 137.336 47.9049 137.132V136.839C47.9049 136.643 47.8313 136.464 47.6842 136.293C47.5371 136.13 47.3328 135.991 47.0713 135.877C46.8098 135.763 46.4993 135.673 46.1315 135.608C45.7638 135.543 45.3633 135.511 44.9384 135.511C44.4971 135.511 44.1048 135.543 43.7371 135.608C43.3775 135.673 43.067 135.763 42.8055 135.877C42.544 135.991 42.3397 136.13 42.1926 136.293C42.0455 136.456 41.9719 136.635 41.9719 136.839V137.132C41.9719 137.327 42.0455 137.515 42.1926 137.678C42.3397 137.841 42.544 137.979 42.8055 138.093C43.067 138.207 43.3775 138.297 43.7371 138.362C44.1048 138.427 44.4971 138.46 44.9384 138.46Z" fill="#3E3A39"/>
<path fill-rule="evenodd" clip-rule="evenodd" d="M64.8049 140.081V141.303H52.1953V140.081H64.8049ZM54.0013 147.894V144.464H61.5442V143.454H53.9278V142.248H62.9907V145.637H55.4478V146.697H63.3911V147.902H54.0013V147.894ZM58.496 134.183C59.1825 134.183 59.7954 134.24 60.3347 134.354C60.8741 134.468 61.3317 134.631 61.7158 134.834C62.0917 135.046 62.3859 135.291 62.5902 135.584C62.7945 135.877 62.8926 136.195 62.8926 136.545V136.904C62.8926 137.254 62.7945 137.572 62.5902 137.865C62.3859 138.158 62.0999 138.411 61.7158 138.615C61.3399 138.826 60.8823 138.981 60.3347 139.095C59.7954 139.209 59.1825 139.266 58.496 139.266C57.8095 139.266 57.1966 139.209 56.6573 139.095C56.1179 138.981 55.6521 138.818 55.2762 138.615C54.9003 138.403 54.6061 138.158 54.4018 137.865C54.1975 137.572 54.0994 137.254 54.0994 136.904V136.545C54.0994 136.195 54.1975 135.877 54.4018 135.584C54.6061 135.291 54.8921 135.038 55.2762 134.834C55.6521 134.623 56.1098 134.468 56.6573 134.354C57.2048 134.24 57.8177 134.183 58.496 134.183ZM58.496 138.044C59.4358 138.044 60.1631 137.93 60.678 137.694C61.1928 137.458 61.4461 137.189 61.4461 136.871V136.578C61.4461 136.26 61.1928 135.983 60.678 135.755C60.1631 135.519 59.4358 135.405 58.496 135.405C57.548 135.405 56.8207 135.519 56.3141 135.755C55.7992 135.991 55.5459 136.26 55.5459 136.578V136.871C55.5459 137.189 55.7992 137.466 56.3141 137.694C56.8289 137.93 57.5562 138.044 58.496 138.044Z" fill="#3E3A39"/>
<path fill-rule="evenodd" clip-rule="evenodd" d="M73.4916 134.582C74.0555 134.582 74.554 134.663 74.979 134.834C75.4039 135.005 75.7635 135.225 76.0413 135.494C76.3274 135.763 76.5398 136.073 76.6788 136.415C76.8259 136.757 76.8912 137.099 76.8912 137.45V138.012C76.8912 138.362 76.8177 138.704 76.6788 139.046C76.5317 139.389 76.3192 139.698 76.0413 139.967C75.7553 140.236 75.4039 140.456 74.979 140.627C74.554 140.798 74.0555 140.879 73.4916 140.879C72.9278 140.879 72.4293 140.798 72.0043 140.627C71.5794 140.456 71.2198 140.236 70.9419 139.967C70.6559 139.698 70.4434 139.389 70.3045 139.046C70.1574 138.704 70.092 138.362 70.092 138.012V137.45C70.092 137.099 70.1656 136.757 70.3045 136.415C70.4516 136.073 70.6641 135.763 70.9419 135.494C71.228 135.225 71.5794 135.005 72.0043 134.834C72.4293 134.663 72.9278 134.582 73.4916 134.582ZM73.4916 139.617C73.8104 139.617 74.0964 139.568 74.3415 139.47C74.5867 139.372 74.7992 139.242 74.9708 139.087C75.1424 138.932 75.265 138.753 75.3549 138.549C75.4448 138.354 75.4856 138.15 75.4856 137.938V137.523C75.4856 137.311 75.4448 137.116 75.3549 136.912C75.265 136.716 75.1342 136.537 74.9708 136.382C74.7992 136.227 74.5949 136.105 74.3415 136.008C74.0964 135.91 73.8104 135.861 73.4916 135.861C73.1729 135.861 72.8869 135.91 72.6417 136.008C72.3966 136.105 72.1841 136.236 72.0125 136.382C71.8409 136.537 71.7183 136.708 71.6284 136.912C71.5385 137.107 71.4976 137.311 71.4976 137.523V137.938C71.4976 138.15 71.5385 138.346 71.6284 138.549C71.7183 138.745 71.849 138.924 72.0125 139.087C72.1841 139.25 72.3884 139.372 72.6417 139.47C72.8951 139.568 73.1729 139.617 73.4916 139.617ZM80.871 141.833V147.805H72.2985V141.833H73.7613V143.544H79.4082V141.833H80.871ZM79.4082 146.558V144.774H73.7613V146.558H79.4082ZM79.4082 141.165V134.109H80.871V141.165H79.4082Z" fill="#3E3A39"/>
<path fill-rule="evenodd" clip-rule="evenodd" d="M86.6652 136.13V134.199H88.1443V136.13H91.3478V137.376H83.3718V136.13H86.6652ZM87.4007 144.741C86.8777 144.741 86.4037 144.66 85.9951 144.497C85.5783 144.334 85.2351 144.114 84.949 143.853C84.663 143.584 84.4505 143.275 84.2953 142.933C84.14 142.582 84.0665 142.232 84.0665 141.882V141.018C84.0665 140.66 84.14 140.309 84.2953 139.967C84.4505 139.617 84.6712 139.307 84.949 139.038C85.2351 138.769 85.5783 138.549 85.9951 138.386C86.4037 138.224 86.8777 138.142 87.4007 138.142C87.9155 138.142 88.3813 138.224 88.7981 138.386C89.2149 138.549 89.5663 138.769 89.8523 139.038C90.1383 139.307 90.3508 139.617 90.5061 139.967C90.6613 140.317 90.7349 140.668 90.7349 141.018V141.882C90.7349 142.24 90.6613 142.59 90.5061 142.933C90.3508 143.283 90.1302 143.584 89.8523 143.853C89.5663 144.122 89.2231 144.334 88.7981 144.497C88.3813 144.66 87.9155 144.741 87.4007 144.741ZM87.4007 139.364C86.8041 139.364 86.3301 139.527 85.9787 139.861C85.6273 140.195 85.4475 140.635 85.4475 141.173V141.71C85.4475 142.256 85.6273 142.688 85.9787 143.014C86.3301 143.34 86.8041 143.503 87.4007 143.503C87.9972 143.503 88.4712 143.34 88.8226 143.014C89.174 142.688 89.3538 142.248 89.3538 141.71V141.173C89.3538 140.627 89.174 140.187 88.8226 139.861C88.4712 139.535 87.9972 139.364 87.4007 139.364ZM92.9577 147.805V134.109H94.4369V147.805H92.9577Z" fill="#3E3A39"/>
<path fill-rule="evenodd" clip-rule="evenodd" d="M103.614 136.619H98.7681V142.916H99.5608C100.533 142.916 101.449 142.884 102.298 142.818C103.148 142.753 103.998 142.656 104.84 142.525L105.036 143.755C104.154 143.91 103.246 144.024 102.315 144.089C101.383 144.155 100.362 144.187 99.2503 144.187H97.2971V135.331H103.614V136.619ZM109.482 140.334H107.365V147.805H105.886V134.109H107.365V139.055H109.482V140.334Z" fill="#3E3A39"/>
</svg>
